<?xml version="1.0" encoding="UTF-8"?>
<!DOCTYPE svg PUBLIC "-//W3C//DTD SVG 1.1//EN" "http://www.w3.org/Graphics/SVG/1.1/DTD/svg11.dtd">
<svg xmlns="http://www.w3.org/2000/svg" version="1.1" width="512px" height="512px" style="shape-rendering:geometricPrecision; text-rendering:geometricPrecision; image-rendering:optimizeQuality; fill-rule:evenodd; clip-rule:evenodd" xmlns:xlink="http://www.w3.org/1999/xlink">
<g><path style="opacity:0.908" fill="#000000" d="M 251.5,-0.5 C 254.167,-0.5 256.833,-0.5 259.5,-0.5C 260.836,1.01027 262.003,2.67694 263,4.5C 263.667,13.8333 263.667,23.1667 263,32.5C 259.929,37.2988 255.762,38.4655 250.5,36C 249.299,35.0975 248.465,33.9308 248,32.5C 247.333,23.1667 247.333,13.8333 248,4.5C 248.997,2.67694 250.164,1.01027 251.5,-0.5 Z"/></g>
<g><path style="opacity:0.898" fill="#000000" d="M 146.5,27.5 C 149.32,27.2475 151.986,27.7475 154.5,29C 160.489,36.9802 165.156,45.6469 168.5,55C 166.872,62.4511 162.538,64.4511 155.5,61C 151.541,54.9173 147.708,48.7506 144,42.5C 140.034,36.5147 140.867,31.5147 146.5,27.5 Z"/></g>
<g><path style="opacity:0.9" fill="#000000" d="M 358.5,27.5 C 368.023,27.2166 371.19,31.5499 368,40.5C 364.081,46.6697 360.414,53.0031 357,59.5C 347.472,65.3027 342.805,62.6361 343,51.5C 346.959,42.5472 352.125,34.5472 358.5,27.5 Z"/></g>
<g><path style="opacity:0.969" fill="#010100" d="M 367.5,99.5 C 364.355,101.191 361.021,101.691 357.5,101C 302.89,58.1547 244.223,51.8214 181.5,82C 178.593,83.6091 175.927,85.4424 173.5,87.5C 132.849,113.404 108.682,150.404 101,198.5C 95.565,262.782 119.065,313.282 171.5,350C 180.373,357.257 186.039,366.424 188.5,377.5C 215.167,377.5 241.833,377.5 268.5,377.5C 272.129,378.417 274.129,380.75 274.5,384.5C 274.59,388.665 272.59,390.998 268.5,391.5C 242.5,391.5 216.5,391.5 190.5,391.5C 190.5,395.167 190.5,398.833 190.5,402.5C 196.167,402.5 201.833,402.5 207.5,402.5C 245.167,402.5 282.833,402.5 320.5,402.5C 320.5,398.833 320.5,395.167 320.5,391.5C 313.159,391.666 305.826,391.5 298.5,391C 295.814,388.454 294.814,385.287 295.5,381.5C 296.29,380.206 297.29,379.039 298.5,378C 306.167,377.667 313.833,377.333 321.5,377C 323.63,368.905 327.463,361.739 333,355.5C 397.973,311.598 421.973,251.264 405,174.5C 399.137,155.437 390.137,138.104 378,122.5C 377.333,120.833 377.333,119.167 378,117.5C 379.094,115.922 379.928,114.255 380.5,112.5C 383.584,111.016 386.584,111.182 389.5,113C 424.639,159.027 434.805,210.194 420,266.5C 406.912,308.91 381.746,342.077 344.5,366C 340.537,370.427 338.037,375.594 337,381.5C 336.667,398.167 336.333,414.833 336,431.5C 334.7,439.296 330.534,444.963 323.5,448.5C 326.316,468.085 318.316,480.251 299.5,485C 295.29,498.375 286.623,507.209 273.5,511.5C 261.167,511.5 248.833,511.5 236.5,511.5C 230.215,509.601 224.715,506.268 220,501.5C 216.243,496.486 213.409,490.986 211.5,485C 192.684,480.251 184.684,468.085 187.5,448.5C 180.466,444.963 176.3,439.296 175,431.5C 174.667,415.167 174.333,398.833 174,382.5C 172.321,374.153 168.154,367.32 161.5,362C 104.272,321.357 79.1057,265.857 86,195.5C 97.7422,130.44 133.909,84.9404 194.5,59C 255.207,38.1106 311.207,46.7773 362.5,85C 364.333,86.8333 366.167,88.6667 368,90.5C 368.634,93.5547 368.468,96.5547 367.5,99.5 Z"/></g>
<g><path style="opacity:1" fill="#fdb003" d="M 367.5,99.5 C 371.597,103.984 375.93,108.318 380.5,112.5C 379.928,114.255 379.094,115.922 378,117.5C 377.333,119.167 377.333,120.833 378,122.5C 390.137,138.104 399.137,155.437 405,174.5C 421.973,251.264 397.973,311.598 333,355.5C 327.463,361.739 323.63,368.905 321.5,377C 313.833,377.333 306.167,377.667 298.5,378C 297.29,379.039 296.29,380.206 295.5,381.5C 294.596,382.209 294.263,383.209 294.5,384.5C 287.833,384.5 281.167,384.5 274.5,384.5C 274.129,380.75 272.129,378.417 268.5,377.5C 248.34,376.503 228.007,376.17 207.5,376.5C 206.77,367.806 203.603,360.14 198,353.5C 187.408,345.12 176.908,336.62 166.5,328C 118.222,276.527 105.722,217.36 129,150.5C 139.359,126.313 154.192,105.313 173.5,87.5C 175.927,85.4424 178.593,83.6091 181.5,82C 244.223,51.8214 302.89,58.1547 357.5,101C 361.021,101.691 364.355,101.191 367.5,99.5 Z"/></g>
<g><path style="opacity:1" fill="#dc9009" d="M 173.5,87.5 C 154.192,105.313 139.359,126.313 129,150.5C 105.722,217.36 118.222,276.527 166.5,328C 176.908,336.62 187.408,345.12 198,353.5C 203.603,360.14 206.77,367.806 207.5,376.5C 228.007,376.17 248.34,376.503 268.5,377.5C 241.833,377.5 215.167,377.5 188.5,377.5C 186.039,366.424 180.373,357.257 171.5,350C 119.065,313.282 95.565,262.782 101,198.5C 108.682,150.404 132.849,113.404 173.5,87.5 Z"/></g>
<g><path style="opacity:0.905" fill="#000000" d="M 68.5,105.5 C 71.1873,105.336 73.854,105.503 76.5,106C 82.6697,109.919 89.0031,113.586 95.5,117C 101.589,124.053 100.255,129.22 91.5,132.5C 83.374,128.603 75.374,124.437 67.5,120C 64.6819,116.662 63.8485,112.829 65,108.5C 66.1451,107.364 67.3117,106.364 68.5,105.5 Z"/></g>
<g><path style="opacity:0.902" fill="#000000" d="M 434.5,105.5 C 445.307,104.131 448.807,108.464 445,118.5C 437.411,123.379 429.578,127.879 421.5,132C 413.099,131.709 410.265,127.542 413,119.5C 420.146,114.685 427.313,110.018 434.5,105.5 Z"/></g>
<g><path style="opacity:1" fill="#030200" d="M 277.5,178.5 C 279.293,181.259 279.793,184.259 279,187.5C 259.562,208.716 250.562,233.716 252,262.5C 261.098,245.412 271.764,229.412 284,214.5C 284.958,211.925 285.458,209.259 285.5,206.5C 284.667,201.511 284.5,196.511 285,191.5C 288.529,187.963 292.363,187.63 296.5,190.5C 297.833,193.167 299.167,195.833 300.5,198.5C 309.619,190.107 319.619,182.94 330.5,177C 337.704,175.422 341.037,178.255 340.5,185.5C 339.797,187.716 338.464,189.549 336.5,191C 318.029,202.135 302.029,216.135 288.5,233C 293.584,233.173 298.584,233.839 303.5,235C 307.654,240.056 306.987,244.39 301.5,248C 295.5,248.333 289.5,248.667 283.5,249C 280.57,249.606 277.737,250.44 275,251.5C 269.73,260.437 264.897,269.603 260.5,279C 284.233,279.423 305.233,272.089 323.5,257C 346.644,237.546 359.311,212.712 361.5,182.5C 362.171,174.183 361.005,166.183 358,158.5C 356.581,157.54 355.081,156.707 353.5,156C 344.723,155.163 336.057,155.83 327.5,158C 318.156,161.091 308.989,164.591 300,168.5C 297.808,168.137 295.974,167.137 294.5,165.5C 292.792,161.541 293.458,158.041 296.5,155C 314.158,144.672 333.158,140.005 353.5,141C 362.34,142.166 368.84,146.666 373,154.5C 381.358,204.607 365.191,244.774 324.5,275C 303.295,289.301 279.961,295.468 254.5,293.5C 249.078,310.521 244.912,327.854 242,345.5C 234.451,350.476 229.951,348.476 228.5,339.5C 230.071,334.599 230.571,329.599 230,324.5C 227.773,319.046 225.273,313.713 222.5,308.5C 180.484,310.75 151.651,292.416 136,253.5C 134.012,244.922 133.345,236.255 134,227.5C 135.833,221 140,216.833 146.5,215C 185.316,210.824 213.149,226.324 230,261.5C 235.171,272.842 236.338,284.508 233.5,296.5C 234.054,298.61 234.888,300.61 236,302.5C 238.167,296.667 240.333,290.833 242.5,285C 236.975,271.361 235.141,257.195 237,242.5C 240.977,217.715 251.477,196.215 268.5,178C 271.555,177.366 274.555,177.532 277.5,178.5 Z"/></g>
<g><path style="opacity:1" fill="#87a625" d="M 361.5,182.5 C 356.821,182.334 352.155,182.501 347.5,183C 344.823,183.168 342.49,184.001 340.5,185.5C 341.037,178.255 337.704,175.422 330.5,177C 319.619,182.94 309.619,190.107 300.5,198.5C 299.167,195.833 297.833,193.167 296.5,190.5C 292.363,187.63 288.529,187.963 285,191.5C 284.5,196.511 284.667,201.511 285.5,206.5C 285.458,209.259 284.958,211.925 284,214.5C 271.764,229.412 261.098,245.412 252,262.5C 250.562,233.716 259.562,208.716 279,187.5C 279.793,184.259 279.293,181.259 277.5,178.5C 282.657,173.43 288.323,169.097 294.5,165.5C 295.974,167.137 297.808,168.137 300,168.5C 308.989,164.591 318.156,161.091 327.5,158C 336.057,155.83 344.723,155.163 353.5,156C 355.081,156.707 356.581,157.54 358,158.5C 361.005,166.183 362.171,174.183 361.5,182.5 Z"/></g>
<g><path style="opacity:1" fill="#91b735" d="M 361.5,182.5 C 359.311,212.712 346.644,237.546 323.5,257C 305.233,272.089 284.233,279.423 260.5,279C 264.897,269.603 269.73,260.437 275,251.5C 277.737,250.44 280.57,249.606 283.5,249C 289.5,248.667 295.5,248.333 301.5,248C 306.987,244.39 307.654,240.056 303.5,235C 298.584,233.839 293.584,233.173 288.5,233C 302.029,216.135 318.029,202.135 336.5,191C 338.464,189.549 339.797,187.716 340.5,185.5C 342.49,184.001 344.823,183.168 347.5,183C 352.155,182.501 356.821,182.334 361.5,182.5 Z"/></g>
<g><path style="opacity:0.909" fill="#000000" d="M 42.5,210.5 C 51.9005,210.114 61.2338,210.614 70.5,212C 75.8426,217.019 75.5093,221.686 69.5,226C 59.5,226.667 49.5,226.667 39.5,226C 33.6411,219.462 34.6411,214.295 42.5,210.5 Z"/></g>
<g><path style="opacity:0.909" fill="#000000" d="M 444.5,210.5 C 453.582,210.086 462.582,210.586 471.5,212C 476.833,216.667 476.833,221.333 471.5,226C 461.5,226.667 451.5,226.667 441.5,226C 437.277,223.005 436.111,219.171 438,214.5C 439.792,212.372 441.958,211.039 444.5,210.5 Z"/></g>
<g><path style="opacity:1" fill="#89ab2b" d="M 150.5,228.5 C 181.59,227.124 203.756,240.457 217,268.5C 218.15,270.754 218.484,273.087 218,275.5C 206.204,261.026 192.037,249.526 175.5,241C 169.699,239.801 166.365,242.134 165.5,248C 165.396,250.145 166.063,251.979 167.5,253.5C 185.875,262.537 200.875,275.537 212.5,292.5C 182.524,292.581 162.024,278.581 151,250.5C 149.651,245.754 148.817,240.92 148.5,236C 148.303,233.176 148.969,230.676 150.5,228.5 Z"/></g>
<g><path style="opacity:0.899" fill="#000000" d="M 89.5,305.5 C 97.8757,306.257 100.709,310.59 98,318.5C 90.7621,323.398 83.2621,327.898 75.5,332C 66.2099,333.622 62.7099,329.789 65,320.5C 72.8309,314.812 80.9976,309.812 89.5,305.5 Z"/></g>
<g><path style="opacity:0.901" fill="#000000" d="M 417.5,305.5 C 428.009,308.505 437.509,313.505 446,320.5C 448.29,329.789 444.79,333.622 435.5,332C 428.337,328.253 421.337,324.253 414.5,320C 410.058,314.044 411.058,309.21 417.5,305.5 Z"/></g>
<g><path style="opacity:0.896" fill="#000000" d="M 156.5,375.5 C 165.791,373.702 169.624,377.368 168,386.5C 164.253,393.663 160.253,400.663 156,407.5C 146.732,412.866 142.066,410.2 142,399.5C 146.593,391.306 151.427,383.306 156.5,375.5 Z"/></g>
<g><path style="opacity:0.893" fill="#000000" d="M 346.5,375.5 C 352.392,374.073 356.559,376.073 359,381.5C 362.333,387.5 365.667,393.5 369,399.5C 370.184,407.649 366.684,411.149 358.5,410C 356,408.833 354.167,407 353,404.5C 349.667,398.5 346.333,392.5 343,386.5C 341.663,381.872 342.83,378.205 346.5,375.5 Z"/></g>
<g><path style="opacity:1" fill="#fb9002" d="M 295.5,381.5 C 294.814,385.287 295.814,388.454 298.5,391C 305.826,391.5 313.159,391.666 320.5,391.5C 320.5,395.167 320.5,398.833 320.5,402.5C 282.833,402.5 245.167,402.5 207.5,402.5C 207.5,399.167 207.5,395.833 207.5,392.5C 228.007,392.83 248.34,392.497 268.5,391.5C 272.59,390.998 274.59,388.665 274.5,384.5C 281.167,384.5 287.833,384.5 294.5,384.5C 294.263,383.209 294.596,382.209 295.5,381.5 Z"/></g>
<g><path style="opacity:1" fill="#d26b07" d="M 268.5,391.5 C 248.34,392.497 228.007,392.83 207.5,392.5C 207.5,395.833 207.5,399.167 207.5,402.5C 201.833,402.5 196.167,402.5 190.5,402.5C 190.5,398.833 190.5,395.167 190.5,391.5C 216.5,391.5 242.5,391.5 268.5,391.5 Z"/></g>
<g><path style="opacity:1" fill="#a9e6f0" d="M 207.5,417.5 C 207.035,423.684 207.701,429.684 209.5,435.5C 194.008,439.006 187.675,433.006 190.5,417.5C 196.167,417.5 201.833,417.5 207.5,417.5 Z"/></g>
<g><path style="opacity:1" fill="#def2f3" d="M 207.5,417.5 C 245.167,417.5 282.833,417.5 320.5,417.5C 320.666,421.846 320.499,426.179 320,430.5C 319.065,433.102 317.232,434.602 314.5,435C 279.502,435.5 244.502,435.667 209.5,435.5C 207.701,429.684 207.035,423.684 207.5,417.5 Z"/></g>
<g><path style="opacity:1" fill="#89bec6" d="M 306.5,461.5 C 306.5,458.167 306.5,454.833 306.5,451.5C 272.5,451.5 238.5,451.5 204.5,451.5C 204.5,454.833 204.5,458.167 204.5,461.5C 203.518,458.038 203.185,454.371 203.5,450.5C 238.167,450.5 272.833,450.5 307.5,450.5C 307.815,454.371 307.482,458.038 306.5,461.5 Z"/></g>
<g><path style="opacity:1" fill="#a6e6ef" d="M 306.5,461.5 C 306.256,464.263 304.923,466.429 302.5,468C 271.167,468.667 239.833,468.667 208.5,468C 206.077,466.429 204.744,464.263 204.5,461.5C 204.5,458.167 204.5,454.833 204.5,451.5C 238.5,451.5 272.5,451.5 306.5,451.5C 306.5,454.833 306.5,458.167 306.5,461.5 Z"/></g>
<g><path style="opacity:1" fill="#2492c0" d="M 282.5,484.5 C 270.149,484.168 257.815,484.501 245.5,485.5C 247.258,489.354 249.258,493.021 251.5,496.5C 239.983,498.584 232.317,494.25 228.5,483.5C 246.674,483.17 264.674,483.503 282.5,484.5 Z"/></g>
<g><path style="opacity:1" fill="#47a5df" d="M 282.5,484.5 C 280.344,490.154 276.344,493.988 270.5,496C 264.175,496.5 257.842,496.666 251.5,496.5C 249.258,493.021 247.258,489.354 245.5,485.5C 257.815,484.501 270.149,484.168 282.5,484.5 Z"/></g>
</svg>
